<svg width="64" height="64" viewBox="0 0 64 64" fill="none" xmlns="http://www.w3.org/2000/svg">
  <rect width="64" height="64" rx="16" fill="#25235E"/>
  <path d="M16 14H34.4C42.926 14 49.84 20.914 49.84 29.44C49.84 35.191 46.65 40.459 41.558 43.138L49.89 52H42.229L34.969 44.201H23.604V52H16V14ZM23.604 20.83V37.371H34.064C38.635 37.371 42.341 33.665 42.341 29.095C42.341 24.533 38.635 20.83 34.064 20.83H23.604Z" fill="#F7F8FC"/>
  <path d="M33.562 37.131L27.463 52H35.554L39.102 42.567L42.386 45.997L46.2 42.101L39.738 35.574L33.562 37.131Z" fill="#20C56C"/>
  <path d="M39.094 42.57L37.099 47.842L47.998 47.805L42.382 45.995L39.094 42.57Z" fill="#FDB022"/>
</svg>
